# xmcd
# 
# Track frame offsets:
#     150
#     36167
#     49289
#     70060
#     97102
#     119231
#     151602
#     163020
# 
# Disc length: 2547
# 
# Revision: 3
# Processed by: cddbd v1.5.2PL0 Copyright (c) Steve Scherf et al.
# Submitted via: fre:ac v1.0.17
# 
DISCID=6b09f108
DTITLE=Black Sabbath - Paranoid
DYEAR=1970
DGENRE=Rock
TTITLE0=War Pigs
TTITLE1=Paranoid
TTITLE2=Planet Caravan
TTITLE3=Iron Man
TTITLE4=Electric Funeral
TTITLE5=Hand of Doom
TTITLE6=Rat Salad
TTITLE7=Fairies Wear Boots
EXTD=ID3G: 17
EXTT0=
EXTT1=
EXTT2=
EXTT3=
EXTT4=
EXTT5=
EXTT6=
EXTT7=
PLAYORDER=
